<svg xmlns="http://www.w3.org/2000/svg" width="1200" height="700" viewBox="0 0 1200 700" role="img" aria-label="Vault screenshot placeholder">
  <defs>
    <linearGradient id="bg3" x1="0" y1="0" x2="1" y2="1">
      <stop offset="0" stop-color="#070a14"/>
      <stop offset="1" stop-color="#0d1638"/>
    </linearGradient>
  </defs>
  <rect width="1200" height="700" fill="url(#bg3)"/>
  <rect x="70" y="70" width="1060" height="560" rx="28" fill="rgba(255,255,255,0.06)" stroke="rgba(255,255,255,0.14)"/>
  <text x="120" y="160" fill="rgba(255,255,255,0.92)" font-family="ui-sans-serif, system-ui, -apple-system, Segoe UI, Roboto, Helvetica, Arial" font-size="40" font-weight="700">
    Vault (Privacy Cockpit)
  </text>
  <text x="120" y="215" fill="rgba(255,255,255,0.70)" font-family="ui-sans-serif, system-ui, -apple-system, Segoe UI, Roboto, Helvetica, Arial" font-size="20">
    Replace this placeholder with a real screenshot.
  </text>
  <g fill="rgba(255,255,255,0.08)">
    <rect x="120" y="260" width="500" height="140" rx="18"/>
    <rect x="120" y="420" width="500" height="180" rx="18"/>
    <rect x="660" y="260" width="410" height="110" rx="18"/>
    <rect x="660" y="390" width="410" height="210" rx="18"/>
  </g>
  <g>
    <path d="M992 330a36 36 0 1 1-72 0 36 36 0 0 1 72 0Z" fill="rgba(124,92,255,0.18)" stroke="rgba(124,92,255,0.55)"/>
    <path d="M944 334h24v-10c0-8-6-14-12-14s-12 6-12 14v10Z" fill="none" stroke="rgba(255,255,255,0.78)" stroke-width="3" stroke-linecap="round" stroke-linejoin="round"/>
    <rect x="936" y="334" width="40" height="28" rx="8" fill="none" stroke="rgba(255,255,255,0.78)" stroke-width="3" stroke-linecap="round" stroke-linejoin="round"/>
  </g>
</svg>
